<svg xmlns="http://www.w3.org/2000/svg" xmlns:xlink="http://www.w3.org/1999/xlink" width="200" height="200" preserveAspectRatio="xMidYMid meet" version="1.0" viewBox="0 0 150 150" zoomAndPan="magnify"><defs><clipPath id="id1"><path d="M 2.429688 18 L 104 18 L 104 120 L 2.429688 120 Z M 2.429688 18" clip-rule="nonzero"/></clipPath></defs><path fill="#000" fill-opacity="1" fill-rule="evenodd" d="M 104.09375 101.945312 C 104.832031 101.109375 105.695312 100.4375 106.6875 99.878906 C 108.671875 98.769531 111.027344 98.148438 113.226562 97.617188 C 116.121094 96.917969 119.023438 96.320312 121.839844 95.324219 C 130.121094 92.402344 134.828125 86.902344 137.300781 78.589844 L 146.878906 46.417969 C 150.15625 35.402344 143.777344 23.664062 132.730469 20.394531 L 102.773438 11.523438 C 91.726562 8.253906 79.957031 14.617188 76.679688 25.632812 L 67.101562 57.804688 C 64.636719 66.082031 65.582031 73.316406 70.902344 80.242188 C 72.71875 82.605469 74.824219 84.691406 76.867188 86.851562 C 78.417969 88.492188 80.054688 90.296875 81.109375 92.304688 C 81.632812 93.308594 81.988281 94.347656 82.152344 95.449219 C 81.738281 96.136719 81.5 96.917969 81.464844 97.738281 L 81.425781 98.539062 C 81.402344 99.058594 81.445312 99.582031 81.554688 100.085938 L 81.472656 100.367188 C 81.140625 101.480469 81.066406 102.660156 81.242188 103.804688 L 73.949219 128.300781 C 73.570312 128.738281 73.261719 129.234375 73.03125 129.769531 L 71.683594 132.929688 C 70.242188 136.316406 72.300781 140.117188 75.761719 141.144531 L 84.449219 143.714844 C 87.90625 144.738281 91.714844 142.675781 92.359375 139.054688 L 92.960938 135.667969 C 93.0625 135.09375 93.070312 134.511719 92.992188 133.9375 L 100.28125 109.445312 C 101.058594 108.582031 101.636719 107.558594 101.972656 106.4375 L 102.054688 106.15625 C 102.425781 105.792969 102.746094 105.378906 103.007812 104.933594 L 103.417969 104.242188 C 103.835938 103.535156 104.0625 102.746094 104.09375 101.945312 Z M 104.09375 101.945312"/><path fill="#fff" fill-opacity="1" fill-rule="evenodd" d="M 131.496094 24.539062 L 101.539062 15.667969 C 92.757812 13.070312 83.441406 18.105469 80.835938 26.863281 L 71.257812 59.035156 C 64.988281 80.101562 87.222656 82.398438 86.578125 97.480469 C 90.808594 98.734375 95.042969 99.988281 99.273438 101.238281 C 106.984375 88.25 126.871094 98.429688 133.144531 77.359375 L 142.722656 45.1875 C 145.328125 36.429688 140.277344 27.140625 131.496094 24.539062 Z M 131.496094 24.539062"/><path fill="#df0" fill-opacity="1" fill-rule="evenodd" d="M 85.734375 103.910156 L 77.726562 130.816406 C 77.417969 130.898438 77.160156 131.140625 77.023438 131.457031 L 75.675781 134.621094 C 75.265625 135.585938 75.972656 136.695312 76.996094 136.996094 L 85.679688 139.570312 C 86.707031 139.871094 87.90625 139.328125 88.089844 138.296875 L 88.691406 134.914062 C 88.75 134.570312 88.664062 134.230469 88.453125 133.992188 L 96.460938 107.085938 C 97.09375 106.632812 97.582031 105.992188 97.816406 105.207031 L 98.359375 103.386719 C 98.742188 103.375 99.0625 103.09375 99.273438 102.738281 L 99.679688 102.046875 C 99.886719 101.699219 99.671875 101.273438 99.320312 101.035156 L 86.648438 97.28125 C 86.226562 97.292969 85.8125 97.535156 85.792969 97.933594 L 85.757812 98.738281 C 85.738281 99.148438 85.851562 99.558594 86.171875 99.777344 L 85.628906 101.597656 C 85.394531 102.378906 85.453125 103.183594 85.734375 103.910156 Z M 85.734375 103.910156"/><path fill="#000" fill-opacity="1" fill-rule="evenodd" d="M 79.066406 129.53125 C 81.882812 130.644531 86.582031 131.261719 88.46875 130.722656 C 85.183594 130.828125 81.839844 130.117188 79.066406 129.53125 Z M 85.738281 107.109375 C 88.558594 108.222656 93.257812 108.835938 95.144531 108.300781 C 91.859375 108.40625 88.515625 107.691406 85.738281 107.109375 Z M 84.40625 111.59375 C 87.222656 112.707031 91.921875 113.320312 93.808594 112.785156 C 90.523438 112.890625 87.179688 112.179688 84.40625 111.59375 Z M 83.070312 116.078125 C 85.886719 117.191406 90.585938 117.804688 92.472656 117.269531 C 89.1875 117.375 85.84375 116.664062 83.070312 116.078125 Z M 81.734375 120.5625 C 84.554688 121.675781 89.25 122.292969 91.136719 121.753906 C 87.851562 121.859375 84.507812 121.148438 81.734375 120.5625 Z M 89.804688 126.238281 C 86.515625 126.34375 83.175781 125.632812 80.398438 125.046875 C 83.21875 126.160156 87.917969 126.773438 89.804688 126.238281 Z M 89.804688 126.238281"/><path fill="#009adb" fill-opacity="1" fill-rule="evenodd" d="M 98.476562 99.078125 C 95.128906 98.085938 91.777344 97.09375 88.425781 96.101562 C 88.320312 93.769531 87.703125 91.570312 86.59375 89.449219 C 83.964844 84.429688 79.226562 80.929688 75.8125 76.488281 C 71.699219 71.136719 71.113281 66.007812 73.03125 59.5625 L 82.609375 27.390625 C 84.925781 19.609375 93.210938 15.128906 101.011719 17.4375 L 130.96875 26.308594 C 138.769531 28.621094 143.261719 36.882812 140.945312 44.664062 L 131.371094 76.835938 C 129.453125 83.28125 126.152344 87.261719 119.777344 89.507812 C 114.488281 91.375 108.601562 91.722656 103.652344 94.5 C 101.5625 95.671875 99.847656 97.179688 98.476562 99.078125 Z M 98.476562 99.078125"/><path fill="#fff" fill-opacity="1" fill-rule="evenodd" d="M 81.609375 30.75 L 132.667969 72.476562 L 131.371094 76.835938 L 131.339844 76.9375 L 80.28125 35.210938 Z M 81.609375 30.75"/><path fill="#df0" fill-opacity="1" fill-rule="evenodd" d="M 79.289062 38.546875 L 130.167969 80.128906 C 128.390625 84.121094 125.738281 86.917969 121.597656 88.78125 L 75.539062 51.140625 Z M 79.289062 38.546875"/><path fill="#df0" fill-opacity="1" fill-rule="evenodd" d="M 82.625 27.339844 L 133.683594 69.066406 L 137.429688 56.472656 L 90.605469 18.203125 C 86.886719 19.917969 83.886719 23.148438 82.625 27.339844 Z M 82.625 27.339844"/><g clip-path="url(#id1)"><path fill="#000" fill-opacity="1" fill-rule="nonzero" d="M 103.316406 68.816406 C 103.316406 70.464844 103.234375 72.105469 103.074219 73.746094 C 102.910156 75.386719 102.667969 77.011719 102.347656 78.628906 C 102.023438 80.246094 101.625 81.839844 101.144531 83.417969 C 100.664062 84.992188 100.109375 86.542969 99.476562 88.0625 C 98.847656 89.585938 98.140625 91.074219 97.363281 92.527344 C 96.582031 93.980469 95.734375 95.390625 94.816406 96.761719 C 93.898438 98.128906 92.917969 99.449219 91.871094 100.722656 C 90.820312 101.996094 89.714844 103.21875 88.546875 104.382812 C 87.378906 105.546875 86.15625 106.652344 84.878906 107.695312 C 83.601562 108.742188 82.277344 109.722656 80.902344 110.636719 C 79.53125 111.550781 78.117188 112.398438 76.660156 113.175781 C 75.203125 113.949219 73.710938 114.65625 72.183594 115.285156 C 70.660156 115.914062 69.105469 116.46875 67.523438 116.949219 C 65.945312 117.425781 64.34375 117.824219 62.722656 118.148438 C 61.105469 118.46875 59.472656 118.710938 57.828125 118.871094 C 56.183594 119.03125 54.539062 119.113281 52.886719 119.113281 C 51.234375 119.113281 49.585938 119.03125 47.941406 118.871094 C 46.300781 118.710938 44.667969 118.46875 43.046875 118.148438 C 41.425781 117.824219 39.828125 117.425781 38.246094 116.949219 C 36.664062 116.46875 35.113281 115.914062 33.585938 115.285156 C 32.0625 114.65625 30.570312 113.949219 29.113281 113.175781 C 27.65625 112.398438 26.242188 111.550781 24.867188 110.636719 C 23.496094 109.722656 22.167969 108.742188 20.894531 107.695312 C 19.617188 106.652344 18.394531 105.546875 17.226562 104.382812 C 16.058594 103.21875 14.949219 101.996094 13.902344 100.722656 C 12.855469 99.449219 11.871094 98.128906 10.953125 96.761719 C 10.035156 95.390625 9.1875 93.980469 8.410156 92.527344 C 7.632812 91.074219 6.925781 89.585938 6.292969 88.0625 C 5.660156 86.542969 5.105469 84.992188 4.625 83.417969 C 4.148438 81.839844 3.746094 80.246094 3.425781 78.628906 C 3.101562 77.011719 2.859375 75.386719 2.699219 73.746094 C 2.535156 72.105469 2.453125 70.464844 2.453125 68.816406 C 2.453125 67.167969 2.535156 65.523438 2.699219 63.886719 C 2.859375 62.246094 3.101562 60.617188 3.425781 59.003906 C 3.746094 57.386719 4.148438 55.792969 4.625 54.214844 C 5.105469 52.640625 5.660156 51.089844 6.292969 49.566406 C 6.925781 48.046875 7.632812 46.558594 8.410156 45.105469 C 9.1875 43.652344 10.035156 42.242188 10.953125 40.871094 C 11.871094 39.503906 12.855469 38.179688 13.902344 36.90625 C 14.949219 35.632812 16.058594 34.414062 17.226562 33.25 C 18.394531 32.085938 19.617188 30.980469 20.894531 29.933594 C 22.167969 28.890625 23.496094 27.910156 24.867188 26.996094 C 26.242188 26.078125 27.65625 25.234375 29.113281 24.457031 C 30.570312 23.679688 32.0625 22.976562 33.585938 22.347656 C 35.113281 21.714844 36.664062 21.164062 38.246094 20.683594 C 39.828125 20.207031 41.425781 19.804688 43.046875 19.484375 C 44.667969 19.164062 46.300781 18.921875 47.941406 18.761719 C 49.585938 18.597656 51.234375 18.519531 52.886719 18.519531 C 54.539062 18.519531 56.183594 18.597656 57.828125 18.761719 C 59.472656 18.921875 61.105469 19.164062 62.722656 19.484375 C 64.34375 19.804688 65.945312 20.207031 67.523438 20.683594 C 69.105469 21.164062 70.660156 21.714844 72.183594 22.347656 C 73.710938 22.976562 75.203125 23.679688 76.660156 24.457031 C 78.117188 25.234375 79.53125 26.078125 80.902344 26.996094 C 82.277344 27.910156 83.601562 28.890625 84.878906 29.933594 C 86.15625 30.980469 87.378906 32.085938 88.546875 33.25 C 89.714844 34.414062 90.820312 35.632812 91.871094 36.90625 C 92.917969 38.179688 93.898438 39.503906 94.816406 40.871094 C 95.734375 42.242188 96.582031 43.652344 97.363281 45.105469 C 98.140625 46.558594 98.847656 48.046875 99.476562 49.566406 C 100.109375 51.089844 100.664062 52.640625 101.144531 54.214844 C 101.625 55.792969 102.023438 57.386719 102.347656 59.003906 C 102.667969 60.617188 102.910156 62.246094 103.074219 63.886719 C 103.234375 65.523438 103.316406 67.167969 103.316406 68.816406 Z M 103.316406 68.816406"/></g><path fill="#df0" fill-opacity="1" fill-rule="evenodd" d="M 9.207031 81.570312 C 11.199219 88.367188 14.8125 94.800781 20.066406 100.261719 C 24.03125 104.386719 28.589844 107.59375 33.476562 109.894531 C 33.425781 109.773438 33.546875 109.714844 33.875 109.738281 C 34.976562 109.699219 37.933594 110.585938 40.261719 111.65625 C 41.914062 112.308594 42.636719 112.808594 42.367188 112.996094 C 55.183594 116.023438 69.078125 113.441406 80.128906 105.179688 C 79.832031 105.320312 79.605469 105.390625 79.476562 105.371094 C 78.851562 105.203125 80.09375 103.515625 82.328125 101.578125 C 84.492188 99.5 86.433594 98.273438 86.679688 98.789062 C 86.730469 98.90625 86.636719 99.144531 86.441406 99.46875 C 102.417969 82.101562 102.488281 55.195312 86.261719 37.753906 C 85.566406 37.234375 84.511719 36.304688 83.375 35.199219 C 82.316406 34.265625 81.472656 33.449219 80.976562 32.894531 C 75.871094 28.890625 70.097656 26.128906 64.066406 24.613281 C 65.039062 25.082031 65.09375 25.460938 63.964844 25.527344 C 62.316406 25.765625 58.914062 25.3125 56.691406 24.566406 C 54.800781 24.058594 54.589844 23.546875 55.851562 23.328125 C 44.042969 22.570312 31.976562 26.394531 22.539062 34.84375 C 22.007812 35.480469 21.1875 36.347656 20.214844 37.300781 C 19.363281 38.21875 18.59375 38.984375 18.027344 39.496094 C 9.742188 49.339844 6.269531 61.90625 7.679688 74.03125 C 7.777344 74.328125 7.890625 74.746094 8.015625 75.285156 C 8.617188 77.347656 9.167969 80.226562 9.207031 81.570312 Z M 94.195312 53.871094 C 94.417969 52.515625 95.40625 53.4375 96.339844 55.652344 C 97.125 57.839844 97.648438 60.75 97.535156 62.324219 C 97.292969 64.070312 96.402344 63.722656 95.511719 61.347656 C 94.425781 58.855469 93.816406 55.382812 94.195312 53.871094 Z M 81.441406 76.113281 C 83.839844 73.09375 87.046875 72.992188 88.597656 75.601562 C 89.894531 77.984375 89.300781 82.023438 87.289062 84.839844 C 85.066406 87.667969 81.945312 88.394531 80.265625 86.238281 C 78.304688 83.855469 78.8125 79.203125 81.441406 76.113281 Z M 52.421875 102.390625 C 55.375 100.414062 60.019531 100.261719 62.515625 102.035156 C 64.789062 103.542969 64.164062 106.050781 61.363281 107.671875 C 58.707031 109.058594 54.757812 109.238281 52.339844 108.0625 C 49.738281 106.644531 49.664062 104.109375 52.421875 102.390625 Z M 18.933594 87.054688 C 20.195312 85.164062 23.371094 85.9375 25.929688 88.917969 C 28.648438 91.84375 29.363281 95.492188 27.675781 96.949219 C 26.253906 98.183594 23.324219 97.089844 21.019531 94.589844 C 18.855469 92 17.882812 88.667969 18.933594 87.054688 Z M 70.015625 36.777344 C 71.949219 35.515625 75.535156 36.464844 78.207031 38.847656 C 80.777344 41.363281 81.726562 44.695312 80.164062 46.363281 C 78.34375 48.277344 74.320312 47.535156 71.371094 44.617188 C 68.332031 41.820312 67.824219 38.28125 70.015625 36.777344 Z M 41.597656 60.964844 C 44.941406 57.714844 50.28125 57.714844 53.5625 61.023438 C 56.878906 64.410156 56.800781 69.871094 53.375 73.179688 C 49.964844 76.453125 44.597656 76.316406 41.359375 72.9375 C 38.214844 69.566406 38.332031 64.242188 41.597656 60.964844 Z M 34.164062 31.824219 C 36.851562 30.097656 40.402344 29.390625 42.34375 30.238281 C 44.472656 31.320312 43.980469 33.886719 40.988281 35.960938 C 37.960938 38.253906 33.863281 38.886719 32.042969 37.433594 C 30.472656 36.222656 31.5 33.734375 34.164062 31.824219 Z M 17.121094 53.402344 C 18.269531 55.46875 17.707031 59.640625 15.859375 62.457031 C 14.261719 65.171875 12.304688 65.277344 11.457031 63.023438 C 10.824219 60.953125 11.367188 57.425781 12.691406 54.925781 C 14.226562 52.347656 16.207031 51.558594 17.121094 53.402344 Z M 17.121094 53.402344"/></svg>